<svg width="114" height="146" viewBox="0 0 114 146" fill="none" xmlns="http://www.w3.org/2000/svg">
<path d="M112.88 80.104C113.221 88.04 113.179 96.104 112.752 104.296L112.368 145.128C111.088 144.957 109.68 144.872 108.144 144.872C106.608 144.872 105.072 144.872 103.536 144.872C102 144.872 100.507 144.915 99.056 145C97.6907 145 96.496 145 95.472 145C95.3013 141.331 95.1733 137.363 95.088 133.096C95.088 128.829 95.0453 124.477 94.96 120.04C94.96 115.603 94.832 111.251 94.576 106.984C94.4053 102.717 94.1067 98.792 93.68 95.208C93.0827 96.1467 92.4 97.64 91.632 99.688C90.864 101.651 90.096 103.699 89.328 105.832C88.56 107.965 87.8347 109.843 87.152 111.464C86.4693 113.085 85.9573 113.896 85.616 113.896C85.1893 113.896 84.6773 113.469 84.08 112.616C83.568 111.677 83.0133 110.525 82.416 109.16C81.904 107.795 81.3493 106.344 80.752 104.808C80.1547 103.272 79.6427 101.864 79.216 100.584C78.7893 99.304 78.4053 98.2373 78.064 97.384C77.808 96.5307 77.68 96.104 77.68 96.104C76.9973 104.125 76.7413 112.232 76.912 120.424C77.168 128.616 77.552 136.68 78.064 144.616C75.3333 145.043 72.3467 145.213 69.104 145.128C65.8613 145.043 62.8747 145 60.144 145C59.9733 145 59.8453 144.872 59.76 144.616C59.6747 144.275 59.5893 143.464 59.504 142.184C59.4187 140.904 59.3333 138.984 59.248 136.424C59.248 133.779 59.248 130.323 59.248 126.056C59.248 121.789 59.248 116.499 59.248 110.184C59.3333 103.869 59.376 96.36 59.376 87.656C59.4613 78.952 59.5467 68.7973 59.632 57.192C60.7413 56.8507 62.0213 56.6373 63.472 56.552C64.9227 56.4667 66.416 56.4667 67.952 56.552C69.488 56.552 71.024 56.5947 72.56 56.68C74.096 56.68 75.5893 56.6373 77.04 56.552H77.168C77.936 57.4053 78.704 58.728 79.472 60.52C80.24 62.2267 80.9653 64.0613 81.648 66.024C82.3307 67.9867 82.9707 69.864 83.568 71.656C84.2507 73.448 84.9333 74.856 85.616 75.88C85.872 76.136 86.128 76.264 86.384 76.264C86.64 76.3493 87.024 75.5387 87.536 73.832C88.1333 72.1253 88.7307 70.1627 89.328 67.944C90.0107 65.64 90.736 63.3787 91.504 61.16C92.3573 58.9413 93.168 57.32 93.936 56.296C94.5333 56.3813 95.6 56.3813 97.136 56.296C98.7573 56.2107 100.464 56.1253 102.256 56.04C104.133 55.9547 106.011 55.912 107.888 55.912C109.851 55.8267 111.515 55.784 112.88 55.784C112.539 63.976 112.539 72.0827 112.88 80.104Z" fill="#D4AF37"/>
<path d="M27.848 46.584C27.848 46.584 27.9333 46.5413 28.104 46.456C29.2133 45.7733 31.0053 45.3893 33.48 45.304C36.04 45.1333 38.728 45.0907 41.544 45.176C44.36 45.2613 46.9627 45.432 49.352 45.688C51.8267 45.8587 53.4907 45.944 54.344 45.944H54.6L54.728 46.072C55.24 50.5947 55.5813 55.416 55.752 60.536C55.9227 65.5707 55.5813 70.392 54.728 75C54.3013 79.352 52.9787 82.68 50.76 84.984C48.5413 87.288 45.8107 89.0373 42.568 90.232C40.4347 90.8293 38.216 91.3413 35.912 91.768C33.608 92.28 31.2613 92.6213 28.872 92.792C26.4827 93.048 24.136 93.048 21.832 92.792C19.6133 92.536 17.48 91.9813 15.432 91.128C12.0187 89.6773 9.416 87.7147 7.624 85.24C5.832 82.7653 4.424 79.6933 3.4 76.024C3.144 75.0853 2.84533 73.8053 2.504 72.184C2.248 70.4773 2.03467 68.7707 1.864 67.064C1.608 64.3333 1.39467 61.8587 1.224 59.64C1.05333 57.4213 0.882667 55.2453 0.712 53.112C0.626667 50.8933 0.541333 48.5893 0.456 46.2C0.456 43.7253 0.498667 40.9093 0.584 37.752C0.669333 35.0213 0.797333 32.248 0.968 29.432C1.13867 26.5307 1.43733 23.7147 1.864 20.984C2.29067 18.168 3.016 15.4373 4.04 12.792C5.14933 10.1467 6.94133 7.97066 9.416 6.26399C11.1227 4.81333 13.0427 3.74666 15.176 3.064C17.3093 2.38133 19.528 1.86933 21.832 1.52799C26.5253 0.930662 31.0053 1.10133 35.272 2.03999C39.5387 2.89333 43.208 4.47199 46.28 6.77599C49.352 9.07999 51.656 12.152 53.192 15.992C54.728 19.7467 55.1973 24.2267 54.6 29.432L54.472 30.2C54.3013 30.456 53.9173 30.584 53.32 30.584C52.7227 30.584 51.7413 30.6267 50.376 30.712C49.096 30.712 47.9867 30.7547 47.048 30.84C46.1947 30.84 45.2987 30.84 44.36 30.84C43.5067 30.84 42.6107 30.7973 41.672 30.712C40.7333 30.6267 39.624 30.4987 38.344 30.328C38.088 29.4747 37.704 28.4507 37.192 27.256C36.7653 25.976 36.168 24.824 35.4 23.8C34.7173 22.6907 33.9067 21.752 32.968 20.984C32.0293 20.1307 30.92 19.704 29.64 19.704C28.1893 19.6187 26.7813 19.576 25.416 19.576C24.0507 19.576 22.856 20.088 21.832 21.112C21.6613 21.2827 21.4053 21.752 21.064 22.52C20.808 23.2027 20.5947 23.8853 20.424 24.568C19.8267 26.616 19.3147 29.0907 18.888 31.992C18.5467 34.8933 18.2907 38.008 18.12 41.336C17.9493 44.5787 17.9067 47.9493 17.992 51.448C18.0773 54.9467 18.248 58.2747 18.504 61.432C18.6747 63.3093 19.016 65.3573 19.528 67.576C20.04 69.7947 21.1067 71.544 22.728 72.824C23.496 73.336 24.4773 73.72 25.672 73.976C26.952 74.1467 28.2747 74.104 29.64 73.848C31.0907 73.592 32.4133 73.2507 33.608 72.824C34.5467 72.3973 35.3573 71.8427 36.04 71.16C36.7227 70.392 37.2347 69.4107 37.576 68.216C37.6613 67.8747 37.7467 67.32 37.832 66.552C38.0027 65.6987 38.088 64.8453 38.088 63.992C38.1733 63.1387 38.1733 62.3707 38.088 61.688C38.088 61.0053 37.96 60.6213 37.704 60.536C37.192 60.4507 36.4667 60.4507 35.528 60.536C34.6747 60.536 33.736 60.5787 32.712 60.664C31.7733 60.664 30.8773 60.664 30.024 60.664C29.256 60.5787 28.6587 60.4507 28.232 60.28C28.0613 58.9147 27.9333 57.72 27.848 56.696C27.848 55.672 27.848 54.6907 27.848 53.752C27.9333 52.728 27.976 51.704 27.976 50.68C27.976 49.656 27.8907 48.376 27.72 46.84V46.712C27.72 46.6267 27.7627 46.584 27.848 46.584Z" fill="#D4AF37"/>
</svg>
